<svg xmlns="http://www.w3.org/2000/svg" width="40.04" height="36.983" viewBox="0 0 40.04 36.983">
  <g id="Icon_ionic-ios-cart" data-name="Icon ionic-ios-cart" transform="translate(-3.382 -4.493)">
    <path id="Path_45" data-name="Path 45" d="M14.184,30.436a2.311,2.311,0,1,1-2.311-2.311,2.311,2.311,0,0,1,2.311,2.311Z" transform="translate(2.283 8.729)" fill="#575758"/>
    <path id="Path_46" data-name="Path 46" d="M29.969,30.436a2.311,2.311,0,1,1-2.311-2.311,2.311,2.311,0,0,1,2.311,2.311Z" transform="translate(8.113 8.729)" fill="#575758"/>
    <path id="Path_47" data-name="Path 47" d="M43.407,11.069a.566.566,0,0,0-.5-.4L11.547,7.632a.965.965,0,0,1-.722-.453A9.8,9.8,0,0,0,9.65,5.388c-.741-.905-2.138-.876-4.7-.9A1.4,1.4,0,0,0,3.382,5.851a1.376,1.376,0,0,0,1.5,1.358,12.793,12.793,0,0,1,2.5.183c.453.135.818.876.953,1.521a.035.035,0,0,0,.01.029c.019.116.193.982.193.992l3.851,20.374a7.488,7.488,0,0,0,1.4,3.437,3.842,3.842,0,0,0,3.168,1.56H39.739a1.369,1.369,0,0,0,1.386-1.29,1.341,1.341,0,0,0-1.348-1.406H16.939a1.119,1.119,0,0,1-.8-.27,4.321,4.321,0,0,1-1.107-2.5l-.414-2.282a.053.053,0,0,1,.039-.058L41.395,22.97a.563.563,0,0,0,.472-.5l1.541-11.15A.549.549,0,0,0,43.407,11.069Z" fill="#575758"/>
  </g>
</svg>
